<svg width="40" height="40" viewBox="0 0 40 40" fill="none" xmlns="http://www.w3.org/2000/svg">
<g opacity="0.5" clip-path="url(#clip0_351_267)">
<path d="M19.9999 3.33333C24.3757 3.32987 28.5773 5.04742 31.6977 8.11517C34.818 11.1829 36.6067 15.3547 36.6776 19.73C36.7485 24.1052 35.0959 28.3328 32.0766 31.5C29.0573 34.6672 24.9135 36.52 20.5399 36.6583L19.9999 36.6667L19.4599 36.6583C15.0863 36.52 10.9426 34.6672 7.92326 31.5C4.90396 28.3328 3.25136 24.1052 3.32226 19.73C3.39315 15.3547 5.18186 11.1829 8.30219 8.11517C11.4225 5.04742 15.6241 3.32987 19.9999 3.33333ZM21.1783 12.155C20.8657 11.8425 20.4419 11.667 19.9999 11.667C19.558 11.667 19.1341 11.8425 18.8216 12.155L12.1549 18.8217C12.1057 18.8711 12.0595 18.9234 12.0166 18.9783L11.9099 19.1317L11.8233 19.295L11.7499 19.4783L11.6999 19.665L11.6716 19.875L11.6666 20L11.6733 20.15L11.6849 20.2467L11.7266 20.4433L11.7849 20.6183L11.8749 20.8067L11.9466 20.9233L12.0649 21.0817L12.1549 21.1783L18.8216 27.845L18.9783 27.9833C19.3132 28.2424 19.7343 28.3642 20.1558 28.324C20.5773 28.2838 20.9678 28.0847 21.2478 27.7671C21.5279 27.4495 21.6766 27.0372 21.6636 26.614C21.6507 26.1907 21.4772 25.7883 21.1783 25.4883L17.3583 21.6667H26.6666L26.8616 21.655C27.2834 21.6048 27.6702 21.3955 27.9428 21.0697C28.2155 20.744 28.3534 20.3264 28.3285 19.9023C28.3036 19.4783 28.1178 19.0797 27.8089 18.7881C27.5 18.4965 27.0914 18.3338 26.6666 18.3333H17.3566L21.1783 14.5117L21.3166 14.355C21.5653 14.0343 21.6885 13.6339 21.6631 13.2289C21.6376 12.8238 21.4652 12.442 21.1783 12.155Z" fill="white"/>
</g>
<defs>
<clipPath id="clip0_351_267">
<rect width="40" height="40" fill="white"/>
</clipPath>
</defs>
</svg>
