<svg width="40" height="40" viewBox="0 0 40 40" fill="none" xmlns="http://www.w3.org/2000/svg">
<g opacity="0.5" clip-path="url(#clip0_351_270)">
<path d="M20.0001 3.33333C15.6243 3.32987 11.4227 5.04742 8.30234 8.11517C5.18201 11.1829 3.39331 15.3547 3.32241 19.73C3.25152 24.1052 4.90411 28.3328 7.92341 31.5C10.9427 34.6672 15.0865 36.52 19.4601 36.6583L20.0001 36.6667L20.5401 36.6583C24.9137 36.52 29.0574 34.6672 32.0767 31.5C35.096 28.3328 36.7486 24.1052 36.6777 19.73C36.6068 15.3547 34.8181 11.1829 31.6978 8.11517C28.5775 5.04742 24.3759 3.32987 20.0001 3.33333ZM18.8217 12.155C19.1343 11.8425 19.5581 11.667 20.0001 11.667C20.442 11.667 20.8659 11.8425 21.1784 12.155L27.8451 18.8217C27.8943 18.8711 27.9405 18.9234 27.9834 18.9783L28.0901 19.1317L28.1767 19.295L28.2501 19.4783L28.3001 19.665L28.3284 19.875L28.3334 20L28.3267 20.15L28.3151 20.2467L28.2734 20.4433L28.2151 20.6183L28.1251 20.8067L28.0534 20.9233L27.9351 21.0817L27.8451 21.1783L21.1784 27.845L21.0217 27.9833C20.6868 28.2424 20.2657 28.3642 19.8442 28.324C19.4227 28.2838 19.0322 28.0847 18.7522 27.7671C18.4721 27.4495 18.3234 27.0372 18.3364 26.614C18.3493 26.1907 18.5228 25.7883 18.8217 25.4883L22.6417 21.6667H13.3334L13.1384 21.655C12.7166 21.6048 12.3298 21.3955 12.0572 21.0697C11.7845 20.744 11.6466 20.3264 11.6715 19.9023C11.6964 19.4783 11.8822 19.0797 12.1911 18.7881C12.5 18.4965 12.9086 18.3338 13.3334 18.3333H22.6434L18.8217 14.5117L18.6834 14.355C18.4347 14.0343 18.3115 13.6339 18.3369 13.2289C18.3624 12.8238 18.5348 12.442 18.8217 12.155Z" fill="white"/>
</g>
<defs>
<clipPath id="clip0_351_270">
<rect width="40" height="40" fill="white" transform="matrix(-1 0 0 1 40 0)"/>
</clipPath>
</defs>
</svg>
