<svg width="20" height="20" viewBox="0 0 20 20" fill="none" xmlns="http://www.w3.org/2000/svg">
<g clip-path="url(#clip0_351_273)">
<path d="M15.2776 1.6665C16.9109 1.6665 18.2442 2.94734 18.3292 4.55984L18.3334 4.72234V15.2773C18.3334 16.9107 17.0526 18.244 15.4401 18.329L15.2776 18.3332H4.72258C3.94023 18.3332 3.18766 18.0332 2.61992 17.4949C2.05218 16.9566 1.71252 16.2211 1.67091 15.4398L1.66675 15.2773V4.72234C1.66675 3.089 2.94758 1.75567 4.56008 1.67067L4.72258 1.6665H15.2776ZM13.0892 7.744C12.933 7.58778 12.7211 7.50002 12.5001 7.50002C12.2791 7.50002 12.0672 7.58778 11.9109 7.744L9.16675 10.4873L8.08925 9.41067L8.01091 9.3415C7.84342 9.21199 7.63291 9.15109 7.42214 9.17117C7.21137 9.19125 7.01615 9.2908 6.87612 9.4496C6.73609 9.60841 6.66176 9.81456 6.66822 10.0262C6.67469 10.2378 6.76146 10.439 6.91091 10.589L8.57758 12.2557L8.65591 12.3248C8.81625 12.4492 9.01646 12.5108 9.21898 12.4981C9.4215 12.4853 9.61242 12.3992 9.75591 12.2557L13.0892 8.92234L13.1584 8.844C13.2828 8.68367 13.3444 8.48346 13.3317 8.28094C13.3189 8.07841 13.2327 7.8875 13.0892 7.744Z" fill="#00BFA5"/>
</g>
<defs>
<clipPath id="clip0_351_273">
<rect width="20" height="20" fill="white"/>
</clipPath>
</defs>
</svg>
